<svg xmlns="http://www.w3.org/2000/svg" version="1.1" xmlns:xlink="http://www.w3.org/1999/xlink" xmlns:svgjs="http://svgjs.com/svgjs" width="1337" height="325" preserveAspectRatio="none" viewBox="0 0 1337 325"><g mask="url(&quot;#SvgjsMask5532&quot;)" fill="none"><path d="M452.39 244.09a5.6 5.6 0 1 0 11.16-0.85 5.6 5.6 0 1 0-11.16 0.85zM468.34 242.88a5.6 5.6 0 1 0 11.17-0.85 5.6 5.6 0 1 0-11.17 0.85zM484.29 241.67a5.6 5.6 0 1 0 11.17-0.84 5.6 5.6 0 1 0-11.17 0.84zM500.25 240.46a5.6 5.6 0 1 0 11.17-0.84 5.6 5.6 0 1 0-11.17 0.84z" fill="rgba(52, 211, 153, 1)"></path><circle r="42.40958919305723" cx="578.68" cy="156.63" stroke="rgba(52, 211, 153, 1)" stroke-width="1.78" stroke-dasharray="3, 3"></circle><path d="M1088.1299999999999 271.29 L1091.05 267.88L1086.8239922069922 266.81899220699245z" stroke="rgba(52, 211, 153, 1)" stroke-width="2.47" stroke-dasharray="2, 2"></path><path d="M1274.52 53.36L1261.73 52.74 1259.53 40.12 1246.74 39.49 1244.55 26.87 1231.76 26.25 1229.56 13.63" stroke="rgba(52, 211, 153, 1)" stroke-width="1" stroke-dasharray="4, 4"></path><path d="M223.54 175.18L236.35 175.53 238.81 188.1 251.61 188.45 254.08 201.01 266.88 201.37 269.35 213.93M218.38 181.29L231.18 181.64 233.65 194.2 246.45 194.56 248.92 207.12 261.72 207.47 264.18 220.04M213.21 187.4L226.01 187.75 228.48 200.31 241.28 200.66 243.75 213.23 256.55 213.58 259.02 226.15" stroke="rgba(246, 232, 65, 1)" stroke-width="2.03" stroke-dasharray="3, 2"></path><path d="M1177.12 124.6 L1090.54 115.47L1078.5924044199858 175.27259558001424z" stroke="rgba(246, 232, 65, 1)" stroke-width="2.33" stroke-dasharray="3, 2"></path><rect width="84" height="84" clip-path="url(&quot;#SvgjsClipPath5533&quot;)" x="1270.73" y="28.38" fill="url(#SvgjsPattern5534)" transform="rotate(43.4, 1312.73, 70.38)"></rect><rect width="84" height="84" clip-path="url(&quot;#SvgjsClipPath5535&quot;)" x="1266.43" y="135.39" fill="url(#SvgjsPattern5536)" transform="rotate(341.03, 1308.43, 177.39)"></rect><circle r="27.083333333333332" cx="1078.2" cy="80" stroke="rgba(246, 232, 65, 1)" stroke-width="1.54"></circle><rect width="60" height="60" clip-path="url(&quot;#SvgjsClipPath5537&quot;)" x="859.1" y="67.41" fill="url(#SvgjsPattern5538)" transform="rotate(282.75, 889.1, 97.41)"></rect><rect width="94.39999999999999" height="94.39999999999999" clip-path="url(&quot;#SvgjsClipPath5539&quot;)" x="1268.84" y="228.91" fill="url(#SvgjsPattern5540)" transform="rotate(6.5, 1316.04, 276.11)"></rect><rect width="116.16" height="116.16" clip-path="url(&quot;#SvgjsClipPath5541&quot;)" x="-38.16" y="-22.76" fill="url(#SvgjsPattern5542)" transform="rotate(335.26, 19.92, 35.32)"></rect><path d="M1076.77 179.07a5.6 5.6 0 1 0-11.2 0.35 5.6 5.6 0 1 0 11.2-0.35zM1060.78 179.57a5.6 5.6 0 1 0-11.2 0.35 5.6 5.6 0 1 0 11.2-0.35zM1044.78 180.07a5.6 5.6 0 1 0-11.19 0.35 5.6 5.6 0 1 0 11.19-0.35zM1028.79 180.57a5.6 5.6 0 1 0-11.19 0.35 5.6 5.6 0 1 0 11.19-0.35z" fill="rgba(246, 232, 65, 1)"></path><rect width="120.60000000000001" height="120.60000000000001" clip-path="url(&quot;#SvgjsClipPath5543&quot;)" x="22.39" y="92.59" fill="url(#SvgjsPattern5544)" transform="rotate(286.11, 82.69, 152.89)"></rect><circle r="27.083333333333332" cx="1261.22" cy="315.04" fill="rgba(246, 232, 65, 1)"></circle><rect width="94.80000000000001" height="94.80000000000001" clip-path="url(&quot;#SvgjsClipPath5545&quot;)" x="970.14" y="231.11" fill="url(#SvgjsPattern5546)" transform="rotate(176.57, 1017.54, 278.51)"></rect><path d="M1263.91 209.61 L1266.71 171.01L1290.300429309739 215.300429309739z" fill="rgba(52, 211, 153, 1)"></path><path d="M200.71 188.79000000000002 L231.82 153.91L184.03128346747602 139.11628346747605z" fill="rgba(52, 211, 153, 1)"></path><path d="M916.89 251.85L912.91 239.68 923.91 233.12 919.93 220.95 930.93 214.4 926.95 202.22 937.95 195.67M924.39 254.66L920.4 242.49 931.4 235.93 927.42 223.76 938.42 217.2 934.44 205.03 945.44 198.47M931.88 257.47L927.89 245.3 938.89 238.74 934.91 226.57 945.91 220.01 941.93 207.84 952.93 201.28" stroke="rgba(246, 232, 65, 1)" stroke-width="1.21" stroke-dasharray="3, 3"></path></g><defs><mask id="SvgjsMask5532"><rect width="1337" height="325" fill="#ffffff"></rect></mask><pattern x="0" y="0" width="6" height="6" patternUnits="userSpaceOnUse" id="SvgjsPattern5534"><path d="M3 1L3 5M1 3L5 3" stroke="rgba(52, 211, 153, 1)" fill="none" stroke-width="1"></path></pattern><clipPath id="SvgjsClipPath5533"><circle r="21" cx="1312.73" cy="70.38"></circle></clipPath><pattern x="0" y="0" width="6" height="6" patternUnits="userSpaceOnUse" id="SvgjsPattern5536"><path d="M0 6L3 0L6 6" stroke="rgba(52, 211, 153, 1)" fill="none"></path></pattern><clipPath id="SvgjsClipPath5535"><circle r="21" cx="1308.43" cy="177.39"></circle></clipPath><pattern x="0" y="0" width="6" height="6" patternUnits="userSpaceOnUse" id="SvgjsPattern5538"><path d="M0 6L3 0L6 6" stroke="rgba(246, 232, 65, 1)" fill="none"></path></pattern><clipPath id="SvgjsClipPath5537"><circle r="15" cx="889.1" cy="97.41"></circle></clipPath><pattern x="0" y="0" width="9.44" height="9.44" patternUnits="userSpaceOnUse" id="SvgjsPattern5540"><path d="M0 9.44L4.72 0L9.44 9.44" stroke="rgba(246, 232, 65, 1)" fill="none"></path></pattern><clipPath id="SvgjsClipPath5539"><circle r="23.599999999999998" cx="1316.04" cy="276.11"></circle></clipPath><pattern x="0" y="0" width="9.68" height="9.68" patternUnits="userSpaceOnUse" id="SvgjsPattern5542"><path d="M0 9.68L4.84 0L9.68 9.68" stroke="rgba(246, 232, 65, 1)" fill="none"></path></pattern><clipPath id="SvgjsClipPath5541"><circle r="29.04" cx="19.92" cy="35.32"></circle></clipPath><pattern x="0" y="0" width="12.06" height="12.06" patternUnits="userSpaceOnUse" id="SvgjsPattern5544"><path d="M0 12.06L6.03 0L12.06 12.06" stroke="rgba(52, 211, 153, 1)" fill="none"></path></pattern><clipPath id="SvgjsClipPath5543"><circle r="30.150000000000002" cx="82.69" cy="152.89"></circle></clipPath><pattern x="0" y="0" width="9.48" height="9.48" patternUnits="userSpaceOnUse" id="SvgjsPattern5546"><path d="M0 9.48L4.74 0L9.48 9.48" stroke="rgba(52, 211, 153, 1)" fill="none"></path></pattern><clipPath id="SvgjsClipPath5545"><circle r="23.700000000000003" cx="1017.54" cy="278.51"></circle></clipPath></defs></svg>